<?xml version="1.0" standalone="no"?>
<!DOCTYPE svg PUBLIC "-//W3C//DTD SVG 20010904//EN"
 "http://www.w3.org/TR/2001/REC-SVG-20010904/DTD/svg10.dtd">
<svg version="1.0" xmlns="http://www.w3.org/2000/svg"
 width="750.000000pt" height="501.000000pt" viewBox="0 0 750.000000 501.000000"
 preserveAspectRatio="xMidYMid meet">
<metadata>
Created by potrace 1.10, written by Peter Selinger 2001-2011
</metadata>
<g transform="translate(0.000000,501.000000) scale(0.100000,-0.100000)"
fill="#623d2a" stroke="none">
<path d="M3683 3740 c-42 -25 -58 -51 -79 -128 -15 -54 -16 -74 -7 -128 21
-121 75 -198 173 -242 30 -14 71 -36 90 -48 19 -13 49 -26 65 -30 17 -4 47
-15 67 -25 48 -24 68 -24 68 1 0 25 6 25 61 -1 55 -27 160 -57 177 -52 15 6
-26 53 -46 53 -15 0 -152 136 -152 151 0 27 -84 119 -149 162 -91 62 -124 104
-125 162 -1 36 4 48 22 60 12 9 22 20 22 26 0 12 -106 59 -134 59 -11 0 -35
-9 -53 -20z"/>
<path d="M2604 3531 c-70 -12 -184 -87 -184 -121 0 -26 -44 -60 -133 -105
l-82 -41 2 -39 c4 -61 37 -85 119 -85 35 0 64 -3 64 -8 0 -4 -13 -18 -30 -32
-36 -30 -39 -64 -7 -91 33 -28 85 -24 151 12 53 29 63 31 119 25 69 -7 99 -23
128 -69 20 -32 21 -44 2 -168 -5 -38 5 -62 72 -169 39 -62 42 -76 17 -106 -25
-30 -113 -94 -157 -113 -41 -18 -59 -50 -63 -114 -4 -58 -2 -65 32 -109 20
-26 36 -51 36 -55 0 -13 70 -76 107 -96 18 -10 53 -17 82 -17 61 0 70 12 52
71 -9 29 -20 43 -44 53 -44 18 -109 93 -102 116 5 15 88 60 112 60 4 0 50 16
102 35 51 19 95 35 97 35 9 0 3 -21 -18 -67 -60 -134 -61 -150 -8 -203 33 -33
47 -40 80 -40 22 0 72 -6 112 -14 173 -34 198 -37 218 -26 26 14 27 69 2 100
-23 28 -142 53 -185 38 -23 -9 -32 -7 -45 6 -16 15 -15 20 8 63 13 25 36 63
51 83 26 36 28 37 110 43 46 4 116 13 154 21 39 9 86 16 106 16 20 0 54 6 75
14 22 7 67 16 102 20 l63 7 15 -38 c47 -122 103 -193 270 -345 23 -21 46 -55
54 -77 17 -52 3 -88 -64 -159 -43 -46 -54 -52 -89 -52 -22 0 -54 -9 -71 -19
-34 -22 -71 -75 -61 -91 4 -6 60 -10 135 -10 l129 0 33 48 c17 26 53 70 79 97
67 72 109 147 109 196 0 33 -9 52 -45 99 -25 32 -45 64 -45 72 0 7 -7 22 -15
32 -9 11 -15 41 -15 68 0 48 3 54 92 231 30 60 31 65 30 188 l-1 126 42 34
c37 31 163 146 259 238 20 20 67 52 105 72 37 21 69 42 71 48 8 23 -50 33
-107 20 -78 -19 -118 -41 -186 -107 -119 -112 -212 -170 -276 -171 -26 -1 -99
20 -154 44 -97 41 -253 67 -390 64 -247 -5 -269 -4 -344 19 -41 13 -83 29 -95
37 -11 8 -34 15 -51 15 -16 0 -43 7 -59 15 -15 8 -35 15 -43 15 -30 0 -92 41
-124 82 -18 24 -49 60 -68 81 l-36 39 31 24 c31 24 31 26 19 66 -10 35 -18 44
-51 56 -43 15 -331 25 -400 13z"/>
<path d="M5168 2961 c-16 -11 -53 -18 -95 -19 -87 -3 -95 -6 -115 -40 -15 -25
-15 -31 -2 -56 7 -16 14 -50 14 -77 0 -47 -3 -52 -75 -130 -41 -45 -75 -86
-75 -90 0 -5 -6 -9 -13 -9 -8 0 -22 19 -33 43 -29 67 -123 186 -152 194 -36 9
-75 -8 -90 -40 -17 -36 -8 -63 27 -75 20 -7 37 -26 54 -59 13 -26 32 -61 41
-78 9 -16 16 -43 16 -58 0 -28 13 -59 70 -166 29 -56 70 -91 107 -91 31 0 57
-61 49 -115 -17 -119 -60 -276 -92 -335 -39 -72 -39 -71 -23 -80 24 -16 96
-22 117 -11 11 6 22 23 25 38 14 72 28 104 79 183 30 47 58 95 62 108 4 12 10
22 14 22 4 0 33 -20 65 -45 49 -39 56 -49 51 -70 -8 -31 34 -105 76 -135 25
-18 28 -25 20 -41 -8 -13 -7 -25 1 -40 9 -17 18 -20 47 -17 21 3 93 1 162 -3
159 -10 189 -5 202 32 14 40 45 45 120 20 157 -53 424 -6 572 101 21 15 48 28
58 28 44 0 108 51 108 86 0 13 -9 28 -20 34 -24 13 -85 4 -117 -16 -12 -8 -27
-14 -32 -14 -5 0 -47 -18 -93 -39 -165 -77 -310 -100 -394 -62 -46 21 -110 91
-123 135 -36 118 -90 230 -136 284 -49 56 -127 114 -262 196 l-113 67 0 45 c0
25 7 61 16 82 9 20 20 78 25 127 5 50 11 111 15 138 6 45 5 47 -18 47 -14 0
-35 -11 -48 -25 -29 -31 -50 -32 -50 -2 0 38 -12 46 -42 28z"/>
<path d="M2077 2806 c-40 -37 -75 -100 -101 -179 -19 -59 -29 -75 -53 -87 -16
-8 -59 -36 -95 -62 -50 -36 -72 -60 -97 -108 -32 -59 -32 -62 -15 -88 21 -34
65 -71 84 -72 36 -1 43 -18 46 -100 3 -93 23 -143 83 -212 65 -73 70 -129 19
-201 -23 -31 7 -38 137 -33 172 8 185 7 239 -5 73 -17 145 2 176 48 22 32 27
34 61 29 30 -5 41 -2 62 19 54 54 42 109 -22 103 l-36 -3 -16 95 c-33 184
-124 326 -252 392 -33 17 -53 20 -109 16 -57 -5 -70 -2 -84 13 -27 30 -23 99
8 140 36 48 68 114 68 140 0 13 7 49 16 80 9 32 14 65 11 73 -9 22 -47 8 -58
-21 -11 -29 -29 -21 -29 12 0 34 -14 38 -43 11z"/>
<path d="M3345 1300 c-22 -3 -50 -12 -62 -18 -19 -11 -21 -16 -11 -37 12 -26
6 -58 -37 -190 -13 -38 -33 -104 -45 -145 -13 -41 -29 -79 -36 -83 -19 -11
-18 -33 2 -41 9 -3 51 -6 94 -6 85 0 105 11 95 52 -4 14 2 51 13 84 11 32 27
84 36 114 9 30 28 90 41 134 30 94 30 99 8 118 -24 20 -50 25 -98 18z"/>
<path d="M4751 1284 c-25 -32 -26 -43 -5 -72 27 -39 96 -24 108 24 17 65 -61
101 -103 48z"/>
<path d="M6240 1303 c-14 -2 -37 -9 -52 -14 -25 -10 -26 -14 -21 -62 3 -37 0
-58 -10 -71 -13 -18 -18 -19 -56 -8 -56 17 -102 7 -151 -35 -56 -48 -80 -105
-80 -191 0 -81 16 -109 75 -131 34 -12 42 -11 85 9 l47 22 41 -21 c23 -12 48
-21 57 -21 31 0 105 47 105 66 0 4 -7 12 -17 19 -20 15 -13 54 37 210 54 169
57 183 34 205 -21 21 -57 30 -94 23z m-117 -238 c-4 -52 -48 -178 -67 -189
-27 -17 -47 17 -40 68 11 84 54 156 89 153 16 -2 20 -8 18 -32z"/>
<path d="M1287 1244 c-3 -4 -4 -18 -1 -33 6 -27 3 -39 -45 -219 -33 -120 -45
-150 -70 -168 -13 -10 -13 -14 -2 -28 11 -13 39 -15 175 -15 208 1 223 6 249
82 22 68 18 87 -21 87 -22 0 -40 -12 -74 -49 -49 -55 -91 -73 -115 -49 -15 16
-17 6 31 168 8 25 22 72 31 105 10 33 28 72 41 86 14 14 21 28 17 32 -8 9
-207 9 -216 1z"/>
<path d="M3749 1248 c0 -2 -1 -30 -3 -63 -1 -33 -9 -80 -18 -105 -9 -25 -24
-74 -33 -110 -21 -80 -45 -140 -57 -140 -15 0 -8 -38 8 -44 20 -8 152 -8 182
0 24 7 29 33 11 51 -15 15 18 130 38 138 8 2 27 -9 42 -26 36 -39 62 -35 77
11 35 107 35 104 19 119 -12 13 -19 11 -53 -12 -44 -31 -72 -35 -72 -9 0 9 9
42 19 72 18 54 19 55 60 58 49 4 66 -7 74 -47 6 -31 33 -46 60 -35 32 12 50
127 21 138 -15 6 -373 9 -375 4z"/>
<path d="M2852 1151 c-87 -15 -129 -80 -69 -109 44 -21 86 -7 103 35 10 23 20
33 32 31 13 -3 17 -14 15 -52 -1 -27 -7 -54 -13 -60 -7 -6 -49 -11 -105 -11
-90 0 -95 -1 -124 -29 -24 -23 -31 -38 -31 -69 0 -52 14 -74 57 -92 46 -19 56
-19 105 5 52 25 60 25 100 0 41 -25 59 -25 109 0 46 24 60 48 36 62 -21 11
-22 45 -2 91 21 50 19 119 -3 145 -35 40 -133 65 -210 53z m36 -227 c4 -28
-29 -67 -50 -59 -28 11 -30 36 -6 62 26 28 52 26 56 -3z"/>
<path d="M4725 1153 c-16 -2 -43 -9 -58 -15 -26 -10 -28 -14 -22 -47 4 -24 -1
-58 -15 -100 -11 -35 -20 -69 -20 -76 0 -6 -11 -34 -25 -61 -14 -27 -23 -55
-20 -61 3 -9 29 -13 84 -13 104 0 111 3 111 51 0 21 14 80 30 131 37 113 39
161 8 182 -12 9 -27 15 -33 15 -5 -1 -23 -4 -40 -6z"/>
<path d="M5028 1146 c-87 -31 -136 -93 -145 -181 -7 -69 0 -96 37 -132 65 -64
197 -65 262 -1 43 42 33 54 -44 50 -57 -3 -69 -1 -87 17 -36 36 -28 51 32 51
110 0 187 44 187 106 0 82 -130 130 -242 90z m88 -61 c8 -20 -21 -81 -42 -89
-36 -14 -40 11 -14 79 11 28 47 35 56 10z"/>
<path d="M1827 1126 c-92 -45 -147 -122 -147 -205 0 -46 34 -100 75 -120 46
-23 143 -26 200 -7 65 23 102 51 136 104 24 39 29 56 29 112 0 60 -3 69 -27
91 -42 38 -77 49 -151 49 -50 -1 -79 -7 -115 -24z m136 -47 c11 -17 -6 -88
-41 -174 -28 -72 -64 -97 -77 -55 -7 23 0 63 24 135 37 108 67 138 94 94z"/>
<path d="M2246 1119 c-37 -32 -48 -72 -22 -82 13 -5 28 -67 45 -181 6 -35 15
-56 34 -72 34 -29 34 -39 1 -60 -25 -17 -26 -17 -68 29 -47 51 -48 52 -76 37
-78 -41 -22 -140 78 -140 81 0 192 64 263 151 113 139 145 337 55 347 -62 7
-92 -69 -56 -143 14 -29 19 -52 15 -67 -8 -24 -43 -68 -56 -68 -12 0 -28 60
-39 145 -13 103 -31 129 -93 133 -39 3 -50 -1 -81 -29z"/>
<path d="M4212 1138 c-20 -10 -22 -17 -17 -48 4 -25 0 -56 -14 -96 -12 -32
-21 -64 -21 -72 0 -7 -12 -38 -26 -67 -14 -30 -23 -59 -19 -65 8 -13 171 -13
196 0 15 9 17 15 9 30 -15 29 -12 55 16 138 36 107 45 114 87 74 53 -51 113
-37 123 29 12 73 -65 114 -136 72 -27 -15 -30 -15 -54 0 -29 19 -108 22 -144
5z"/>
<path d="M5398 1137 c-29 -11 -32 -19 -19 -51 9 -23 -52 -231 -74 -256 -34
-38 -13 -50 83 -49 96 1 107 7 107 60 1 59 44 188 68 201 25 13 47 3 47 -21 0
-11 -9 -43 -20 -71 -20 -51 -26 -116 -12 -136 25 -38 103 -44 156 -13 38 22
46 45 20 63 -16 12 -15 19 20 143 17 59 9 106 -21 129 -31 23 -102 17 -139
-11 -18 -14 -37 -25 -43 -25 -5 0 -18 11 -29 25 -17 21 -28 25 -68 24 -27 -1
-61 -6 -76 -12z"/>
</g>
</svg>
